<?xml version="1.0" encoding="utf-8"?>
<!-- Generator: Adobe Illustrator 17.0.0, SVG Export Plug-In . SVG Version: 6.00 Build 0)  -->
<!DOCTYPE svg PUBLIC "-//W3C//DTD SVG 1.1//EN" "http://www.w3.org/Graphics/SVG/1.1/DTD/svg11.dtd">
<svg version="1.1" id="Capa_1" xmlns="http://www.w3.org/2000/svg" xmlns:xlink="http://www.w3.org/1999/xlink" x="0px" y="0px"
	 width="128px" height="128px" viewBox="0 0 128 128" enable-background="new 0 0 128 128" xml:space="preserve">
<g>
	<path fill="#FFFFFF" d="M30.764,45.008c1.313-0.658,2.885-0.958,4.718-0.898c5.504,0.277,8.453,4.03,9.141,10.843
		c-0.067,9.492-3.606,18.174-10.616,26.047c-1.263,1.417-3.709,2.714-5.301,1.06c0,0,0.15-2.906,0.45-8.716
		c0.095-1.828-0.681-3.386-2.718-3.356c-2.037-0.036-2.807,1.047-2.853,2.938c-0.057,2.322,0.074,5.514,0.395,9.575
		c-1.063,0.829-3.812,0.617-4.73-0.32c-6.526-6.65-10.245-14.529-11.157-23.636C7.395,50.047,10.631,45.3,17.8,44.306
		c1.583-0.219,3.091,0.184,4.359,1.2C25.398,48.104,27.889,46.452,30.764,45.008z"/>
	<g>
		<g>
			<g>
				<defs>
					<path id="SVGID_1_" d="M30.764,45.008c1.313-0.658,2.885-0.958,4.718-0.898c5.504,0.277,8.453,4.03,9.141,10.843
						c-0.067,9.492-3.606,18.174-10.616,26.047c-1.263,1.417-3.709,2.714-5.301,1.06c0,0,0.15-2.906,0.45-8.716
						c0.095-1.828-0.681-3.386-2.718-3.356c-2.037-0.036-2.807,1.047-2.853,2.938c-0.057,2.322,0.074,5.514,0.395,9.575
						c-1.063,0.829-3.812,0.617-4.73-0.32c-6.526-6.65-10.245-14.529-11.157-23.636C7.395,50.047,10.631,45.3,17.8,44.306
						c1.583-0.219,3.091,0.184,4.359,1.2C25.398,48.104,27.889,46.452,30.764,45.008z"/>
				</defs>
				<clipPath id="SVGID_2_">
					<use xlink:href="#SVGID_1_"  overflow="visible"/>
				</clipPath>
				<g clip-path="url(#SVGID_2_)">
					<path fill="#EDEDED" d="M5.66,47.926c-0.179,27.844,5.928,39.369,18.319,34.577c-10.502-13.384-11.793-26.069-3.873-38.057
						C13.887,42.815,9.071,43.976,5.66,47.926z"/>
					
						<path fill="none" stroke="#436DB3" stroke-width="0.9531" stroke-linecap="round" stroke-linejoin="round" stroke-miterlimit="22.9256" d="
						M33.588,48.116c4.135-0.204,6.405,2.024,6.808,6.682"/>
				</g>
			</g>
		</g>
	</g>
	<path fill="none" stroke="#FFFFFF" stroke-width="1.787" stroke-miterlimit="22.9256" d="M30.764,45.008
		c1.313-0.658,2.885-0.958,4.718-0.898c5.504,0.277,8.453,4.03,9.141,10.843c-0.067,9.492-3.606,18.174-10.616,26.047
		c-1.263,1.417-3.709,2.714-5.301,1.06c0,0,0.15-2.906,0.45-8.716c0.095-1.828-0.681-3.386-2.718-3.356
		c-2.037-0.036-2.807,1.047-2.853,2.938c-0.057,2.322,0.074,5.514,0.395,9.575c-1.063,0.829-3.812,0.617-4.73-0.32
		c-6.526-6.65-10.245-14.529-11.157-23.636C7.395,50.047,10.631,45.3,17.8,44.306c1.583-0.219,3.091,0.184,4.359,1.2
		C25.398,48.104,27.889,46.452,30.764,45.008z"/>
	<path fill="#FFFFFF" d="M68.691,33.91c1.313-0.658,2.885-0.958,4.718-0.898c5.504,0.277,8.453,4.03,9.141,10.843
		c-0.058,8.212-2.715,15.817-7.97,22.818c-3.121-0.79-6.63-1.234-10.342-1.234c-3.88,0-7.54,0.485-10.764,1.344
		c-4.247-5.673-6.732-12.118-7.454-19.334c-0.698-8.499,2.538-13.246,9.707-14.24c1.583-0.219,3.091,0.184,4.359,1.2
		C63.325,37.006,65.816,35.354,68.691,33.91z"/>
	<g>
		<g>
			<g>
				<defs>
					<path id="SVGID_3_" d="M68.691,33.91c1.313-0.658,2.885-0.958,4.718-0.898c5.504,0.277,8.453,4.03,9.141,10.843
						c-0.058,8.212-2.715,15.817-7.97,22.818c-3.121-0.79-6.63-1.234-10.342-1.234c-3.88,0-7.54,0.485-10.764,1.344
						c-4.247-5.673-6.732-12.118-7.454-19.334c-0.698-8.499,2.538-13.246,9.707-14.24c1.583-0.219,3.091,0.184,4.359,1.2
						C63.325,37.006,65.816,35.354,68.691,33.91z"/>
				</defs>
				<clipPath id="SVGID_4_">
					<use xlink:href="#SVGID_3_"  overflow="visible"/>
				</clipPath>
				<g clip-path="url(#SVGID_4_)">
					<path fill="#EDEDED" d="M43.586,36.827c-0.179,27.844,5.928,39.369,18.319,34.577c-10.501-13.383-11.792-26.068-3.873-38.056
						C51.814,31.718,46.998,32.877,43.586,36.827z"/>
					
						<path fill="none" stroke="#436DB3" stroke-width="0.8339" stroke-linecap="round" stroke-linejoin="round" stroke-miterlimit="22.9256" d="
						M70.101,67.381c3.312-2.708,5.455-6.659,6.43-11.852"/>
				</g>
			</g>
		</g>
	</g>
	<path fill="none" stroke="#FFFFFF" stroke-width="1.787" stroke-miterlimit="22.9256" d="M68.691,33.91
		c1.313-0.658,2.885-0.958,4.718-0.898c5.504,0.277,8.453,4.03,9.141,10.843c-0.058,8.212-2.715,15.817-7.97,22.818
		c-3.121-0.79-6.63-1.234-10.342-1.234c-3.88,0-7.54,0.485-10.764,1.344c-4.247-5.673-6.732-12.118-7.454-19.334
		c-0.698-8.499,2.538-13.246,9.707-14.24c1.583-0.219,3.091,0.184,4.359,1.2C63.325,37.006,65.816,35.354,68.691,33.91z"/>
	<path fill="#FFFFFF" d="M106.141,45.008c1.313-0.658,2.885-0.958,4.718-0.898c5.504,0.277,8.453,4.03,9.141,10.843
		c-0.067,9.492-3.606,18.174-10.616,26.047c-1.263,1.417-3.709,2.714-5.301,1.06c0,0,0.15-2.906,0.45-8.716
		c0.095-1.828-0.681-3.386-2.718-3.356c-2.037-0.036-2.807,1.047-2.853,2.938c-0.057,2.322,0.074,5.514,0.395,9.575
		c-1.063,0.829-3.812,0.617-4.73-0.32C88.1,75.534,84.381,67.654,83.47,58.548c-0.698-8.499,2.538-13.246,9.707-14.24
		c1.582-0.219,3.091,0.184,4.359,1.2C100.776,48.104,103.266,46.452,106.141,45.008z"/>
	<g>
		<g>
			<g>
				<defs>
					<path id="SVGID_5_" d="M106.141,45.008c1.313-0.658,2.885-0.958,4.718-0.898c5.504,0.277,8.453,4.03,9.141,10.843
						c-0.067,9.492-3.606,18.174-10.616,26.047c-1.263,1.417-3.709,2.714-5.301,1.06c0,0,0.15-2.906,0.45-8.716
						c0.095-1.828-0.681-3.386-2.718-3.356c-2.037-0.036-2.807,1.047-2.853,2.938c-0.057,2.322,0.074,5.514,0.395,9.575
						c-1.063,0.829-3.812,0.617-4.73-0.32C88.1,75.534,84.381,67.654,83.47,58.548c-0.698-8.499,2.538-13.246,9.707-14.24
						c1.582-0.219,3.091,0.184,4.359,1.2C100.776,48.104,103.266,46.452,106.141,45.008z"/>
				</defs>
				<clipPath id="SVGID_6_">
					<use xlink:href="#SVGID_5_"  overflow="visible"/>
				</clipPath>
				<g clip-path="url(#SVGID_6_)">
					<path fill="#EDEDED" d="M81.037,47.926c-0.179,27.844,5.928,39.369,18.319,34.577c-10.502-13.384-11.793-26.069-3.873-38.057
						C89.264,42.815,84.448,43.976,81.037,47.926z"/>
					<path fill="#EDEDED" d="M105.119,48.565c0.412-0.23,0.612-0.136,0.599,0.284c-2.858,3.551-6.115,3.635-9.771,0.252
						c-0.134-0.341,0.024-0.488,0.473-0.441C99.661,50.086,102.561,50.053,105.119,48.565z"/>
					
						<path fill="none" stroke="#436DB3" stroke-width="0.9531" stroke-linecap="round" stroke-linejoin="round" stroke-miterlimit="22.9256" d="
						M105.6,49.148c-2.71,3.131-5.888,3.233-9.535,0.306"/>
				</g>
			</g>
		</g>
	</g>
	<path fill="none" stroke="#FFFFFF" stroke-width="1.787" stroke-miterlimit="22.9256" d="M106.141,45.008
		c1.313-0.658,2.885-0.958,4.718-0.898c5.504,0.277,8.453,4.03,9.141,10.843c-0.067,9.492-3.606,18.174-10.616,26.047
		c-1.263,1.417-3.709,2.714-5.301,1.06c0,0,0.15-2.906,0.45-8.716c0.095-1.828-0.681-3.386-2.718-3.356
		c-2.037-0.036-2.807,1.047-2.853,2.938c-0.057,2.322,0.074,5.514,0.395,9.575c-1.063,0.829-3.812,0.617-4.73-0.32
		C88.1,75.534,84.381,67.654,83.47,58.548c-0.698-8.499,2.538-13.246,9.707-14.24c1.582-0.219,3.091,0.184,4.359,1.2
		C100.776,48.104,103.266,46.452,106.141,45.008z"/>
	<path fill="#DADADA" d="M52.949,73.119h22.507l-4.051,18.952c-1.977,5.781-13.634,5.567-15.359,0L52.949,73.119z"/>
	<g>
		<g>
			<g>
				<defs>
					<path id="SVGID_7_" d="M52.949,73.119h22.507l-4.051,18.952c-1.977,5.781-13.634,5.567-15.359,0L52.949,73.119z"/>
				</defs>
				<clipPath id="SVGID_8_">
					<use xlink:href="#SVGID_7_"  overflow="visible"/>
				</clipPath>
				<g clip-path="url(#SVGID_8_)">
					<path fill="#FFFFFF" d="M57.603,72.01c1.572,0.063,3.144,0.126,4.717,0.189c-0.7,10.717-0.578,19.921-0.578,29.882
						c-0.761,0-0.944,0-1.704,0C59.226,92.057,58.414,82.035,57.603,72.01z"/>
				</g>
			</g>
		</g>
	</g>
	
		<path fill="none" stroke="#FFFFFF" stroke-width="1.787" stroke-linecap="round" stroke-linejoin="round" stroke-miterlimit="22.9256" d="
		M52.949,73.119h22.507l-4.051,18.952c-1.977,5.781-13.634,5.567-15.359,0L52.949,73.119z"/>
</g>
</svg>
