<?xml version="1.0" encoding="utf-8"?>
<!-- Generator: Adobe Illustrator 17.0.0, SVG Export Plug-In . SVG Version: 6.00 Build 0)  -->
<!DOCTYPE svg PUBLIC "-//W3C//DTD SVG 1.1//EN" "http://www.w3.org/Graphics/SVG/1.1/DTD/svg11.dtd">
<svg version="1.1" id="Capa_1" xmlns="http://www.w3.org/2000/svg" xmlns:xlink="http://www.w3.org/1999/xlink" x="0px" y="0px"
	 width="128px" height="128px" viewBox="0 0 128 128" enable-background="new 0 0 128 128" xml:space="preserve">
<rect x="-0.925" y="-1.142" display="none" width="130.573" height="131.442"/>
<g>
	<g>
		
			<path fill="none" stroke="#FFFFFF" stroke-width="2.7194" stroke-linecap="round" stroke-linejoin="round" stroke-miterlimit="22.9256" d="
			M61.56,108.425c-12.186-7.456-18.278-11.184-18.278-11.184c-6.452-4.586-11.747-7.309-15.886-8.17
			c-3.212-0.046-6.562-0.954-10.05-2.724c-3.659-2.287-5.518-6.826-5.577-13.616c1.886-9.383,2.535-18.029,1.945-25.936
			c-1.515-7.648-3.33-13.549-5.445-17.701C5.058,21.58,5.338,16.739,9.112,14.569c3.753-1.641,7.101-0.14,10.043,4.504
			c2.121,6.035,6.444,11.006,12.968,14.914c0.661,0.121,1.285,0.218,1.874,0.292c5.501-0.713,13.159-4.18,16.475-10.34
			c2.317-4.533,4.392-4.317,6.225,0.648c0.883,11.256,0.277,19.382-1.816,24.38c-2.954,6.091-3.775,12.229-2.464,18.415
			c1.696,1.979,3.858,5.265,6.485,9.855c2.359-0.716,4.801-0.867,7.327-0.454c11.373,6.11,23.649,9.373,36.83,9.792
			c5.636-1.232,8.143-1.125,7.521,0.324c-5.999,6.063-8.182,12.59-6.548,19.582c0.349,4.731-0.775,8.686-3.372,11.866
			c-3.516,2.575-7.86,3.094-13.033,1.556c0,0-8.083-3.48-24.251-10.439c0,0,2.14-3.523,6.419-10.569
			c0.878-2.155,0.489-3.69-1.168-4.604c0,0-11.737-5.36-35.208-16.08c-3.293-1.166-4.179-2.117-2.658-2.853
			c0,0,1.081-0.583,3.242-1.751c2.917-1.967,3.652-3.912,2.204-5.837c0,0-1.127-1.831-3.536-5.387
			c-0.468-0.691-0.401,0.092-1.256,0.059l0.437,0.995l3.318,4.851c1.306,1.991-0.877,4.152-6.549,6.484
			c-1.832,0.687-1.724,1.616,0.324,2.789C53.8,88.843,66.228,94.484,66.228,94.484c2.716,0.98,3.408,2.277,2.075,3.891
			C63.807,105.075,61.56,108.425,61.56,108.425z"/>
		<path fill="none" stroke="#FFFFFF" stroke-miterlimit="10" d="M61.56,108.425c-12.186-7.456-18.278-11.184-18.278-11.184
			c-6.452-4.586-11.747-7.309-15.886-8.17c-3.212-0.046-6.562-0.954-10.05-2.724c-3.659-2.287-5.518-6.826-5.577-13.616
			c1.886-9.383,2.535-18.029,1.945-25.936c-1.515-7.648-3.33-13.549-5.445-17.701C5.058,21.58,5.338,16.739,9.112,14.569
			c3.753-1.641,7.101-0.14,10.043,4.504c2.121,6.035,6.444,11.006,12.968,14.914c0.661,0.121,1.285,0.218,1.874,0.292
			c5.501-0.713,13.159-4.18,16.475-10.34c2.317-4.533,4.392-4.317,6.225,0.648c0.883,11.256,0.277,19.382-1.816,24.38
			c-2.954,6.091-3.775,12.229-2.464,18.415c1.696,1.979,3.858,5.265,6.485,9.855c2.359-0.716,4.801-0.867,7.327-0.454
			c11.373,6.11,23.649,9.373,36.83,9.792c5.636-1.232,8.143-1.125,7.521,0.324c-5.999,6.063-8.182,12.59-6.548,19.582
			c0.349,4.731-0.775,8.686-3.372,11.866c-3.516,2.575-7.86,3.094-13.033,1.556c0,0-8.083-3.48-24.251-10.439
			c0,0,2.14-3.523,6.419-10.569c0.878-2.155,0.489-3.69-1.168-4.604c0,0-11.737-5.36-35.208-16.08
			c-3.293-1.166-4.179-2.117-2.658-2.853c0,0,1.081-0.583,3.242-1.751c2.917-1.967,3.652-3.912,2.204-5.837
			c0,0-1.127-1.831-3.536-5.387c-0.468-0.691-0.401,0.092-1.256,0.059l0.437,0.995l3.318,4.851c1.306,1.991-0.877,4.152-6.549,6.484
			c-1.832,0.687-1.724,1.616,0.324,2.789C53.8,88.843,66.228,94.484,66.228,94.484c2.716,0.98,3.408,2.277,2.075,3.891
			C63.807,105.075,61.56,108.425,61.56,108.425z"/>
	</g>
	
		<path fill="none" stroke="#FFFFFF" stroke-width="1.0877" stroke-linecap="round" stroke-linejoin="round" stroke-miterlimit="22.9256" d="
		M108.988,79.173c-0.818,3.401-1.246,5.605-1.285,6.611c0.874,0.864,1.778,0.67,2.712-0.581c0.913-1.855,1.82-4.578,2.723-8.17
		c-0.792-0.776-1.981-0.56-3.566,0.648c-0.612-1.613-2.125-1.721-4.539-0.324c-0.99-1.555-2.568-1.685-4.734-0.389
		c-0.064-1.148-0.907-1.493-2.528-1.038c-0.896-0.501-1.944-0.523-3.145-0.065c-0.287-1.282-1.346-1.617-3.177-1.005
		c-1.05-0.846-2.303-1.008-3.762-0.487c-1.641-1.209-3.359-1.62-5.155-1.232c-1.516-1.069-3.104-1.21-4.765-0.422
		c0.168-1.13-0.394-1.789-1.686-1.978c-0.933,0.147-1.776,0.007-2.529-0.422c-1.291-1.109-3.096-1.401-5.413-0.876
		c0.536-1.126,0.125-2.013-1.233-2.659c-2.352,0.332-4.557,0.181-6.614-0.454c-3.579-2.125-5.235-0.452-4.967,5.018
		c1.412,5.106,3.816,6.85,7.214,5.232c2.778-2.134,4.385-4.124,4.822-5.97c-0.551,3.569-0.563,5.818-0.036,6.747
		c2.066,2.531,4.326,3.35,6.78,2.46c1.427-2.748,2.464-4.607,3.112-5.576c-1.212,4.866-0.65,7.849,1.686,8.948
		c3.736,2.139,6.568-0.196,8.494-7.002c-1.112,5.256-0.702,8.303,1.232,9.142c2.721,1.094,4.58-1.414,5.576-7.521
		c-0.448,4.968,0.057,7.71,1.515,8.226c1.507,0.53,2.839-1.996,3.996-7.578c-1.015,5.755-0.432,8.438,1.747,8.051
		c1.308-0.652,2.412-3.163,3.311-7.532c-0.976,5.979-0.594,8.326,1.147,7.041C107.299,83.772,108.322,81.489,108.988,79.173z"/>
	
		<path fill="none" stroke="#FFFFFF" stroke-width="1.0877" stroke-linecap="round" stroke-linejoin="round" stroke-miterlimit="22.9256" d="
		M116.023,52.074c-0.18-6.139,0.56-8.674,2.221-7.605c0.306-1.316-0.813-3.332-3.355-6.046c-1.889-3.569-2.472-7.697-1.751-12.385
		c0.415-1.576,0.264-2.549-0.454-2.917c-6.235-1.395-9.347-6.603-9.338-15.626c0,0,0.519-0.087,1.557-0.26
		c0.034,6.683,2.574,11.194,7.618,13.535c2.028,0.614,3.054,1.474,3.08,2.578c0,0-0.281,2.118-0.843,6.355
		c0.098,3.722,0.811,6.402,2.14,8.04c1.487,1.726,2.481,3.844,2.982,6.354c1.914,3.029,2.497,5.32,1.751,6.873
		c-0.305,2.902-1.882,4.22-4.733,3.956c-0.496,1.547-1.749,1.806-3.761,0.777c-1.702,3.201-4.058,3.482-7.068,0.843
		c-1.611,1.963-3.988,2.027-7.132,0.194c-2.322,2.333-4.634,2.246-6.938-0.259c-3.522,2.592-7.088,2.506-10.699-0.259
		c-2.818,0.947-6.016,0.213-9.597-2.204c-2.756,1.44-5.954,1.18-9.596-0.778c-1.604-1.35-1.258-4.506,1.038-9.466
		c6.855-0.656,9.827,1.603,8.916,6.777c-0.065,1.471-0.098,2.205-0.098,2.205c1.952-4.722,4.049-7.088,6.29-7.1
		c3.241-0.069,4.473,2.665,3.696,8.202c0.476-0.043,0.714-0.065,0.714-0.065c0.275-4.94,1.702-7.101,4.279-6.484
		c2.719,0.217,4.156,2.206,4.312,5.965c0.843,0,1.275,0,1.297,0c-0.476-4.216,0.561-6.442,3.113-6.679
		c2.065-0.384,3.177,2.221,3.339,7.814c0.755-5.368,2.084-7.94,3.989-7.715c1.821,0.73,2.848,3.281,3.08,7.651
		c0.255-5.947,1.271-8.876,3.047-8.786c1.607-0.151,2.721,2.27,3.34,7.262c-0.333-5.158,0.185-7.741,1.556-7.749
		C115.415,45.972,116.084,48.306,116.023,52.074z"/>
	<g>
		
			<path fill="none" stroke="#FFFFFF" stroke-width="2.7194" stroke-linecap="round" stroke-linejoin="round" stroke-miterlimit="22.9256" d="
			M41.564,54.986c-0.261-0.934,0.038-1.369,0.899-1.304c1.048,2.539,2.049,4.942,3.002,7.208c-0.402,0.567-0.887,0.689-1.454,0.366
			C42.379,57.076,41.564,54.986,41.564,54.986z"/>
		<path fill="none" stroke="#FFFFFF" stroke-miterlimit="10" d="M41.564,54.986c-0.261-0.934,0.038-1.369,0.899-1.304
			c1.048,2.539,2.049,4.942,3.002,7.208c-0.402,0.567-0.887,0.689-1.454,0.366C42.379,57.076,41.564,54.986,41.564,54.986z"/>
	</g>
	<g>
		
			<path fill="#FFFFFF" stroke="#FFFFFF" stroke-width="2.7194" stroke-linecap="round" stroke-linejoin="round" stroke-miterlimit="22.9256" d="
			M37.561,84.988c-0.682,0.69-1.208,0.645-1.577-0.134c1.686-2.168,3.277-4.228,4.774-6.179c0.691,0.069,1.038,0.43,1.039,1.082
			C38.973,83.245,37.561,84.988,37.561,84.988z"/>
		<path fill="#FFFFFF" stroke="#FFFFFF" stroke-miterlimit="10" d="M37.561,84.988c-0.682,0.69-1.208,0.645-1.577-0.134
			c1.686-2.168,3.277-4.228,4.774-6.179c0.691,0.069,1.038,0.43,1.039,1.082C38.973,83.245,37.561,84.988,37.561,84.988z"/>
	</g>
	<g>
		
			<path fill="none" stroke="#FFFFFF" stroke-width="2.7194" stroke-linecap="round" stroke-linejoin="round" stroke-miterlimit="22.9256" d="
			M57.533,93.622c-0.682,0.69-1.207,0.645-1.577-0.135c1.686-2.168,3.277-4.228,4.774-6.179c0.691,0.069,1.038,0.43,1.039,1.082
			C58.945,91.878,57.533,93.622,57.533,93.622z"/>
		<path fill="none" stroke="#FFFFFF" stroke-miterlimit="10" d="M57.533,93.622c-0.682,0.69-1.207,0.645-1.577-0.135
			c1.686-2.168,3.277-4.228,4.774-6.179c0.691,0.069,1.038,0.43,1.039,1.082C58.945,91.878,57.533,93.622,57.533,93.622z"/>
	</g>
	<polyline fill="none" stroke="#FFFFFF" stroke-width="1.0877" stroke-miterlimit="22.9256" points="31.636,62.938 43.445,57.836 
		52.249,56.872 	"/>
</g>
</svg>
