<?xml version="1.0" encoding="utf-8"?>
<!-- Generator: Adobe Illustrator 17.0.0, SVG Export Plug-In . SVG Version: 6.00 Build 0)  -->
<!DOCTYPE svg PUBLIC "-//W3C//DTD SVG 1.1//EN" "http://www.w3.org/Graphics/SVG/1.1/DTD/svg11.dtd">
<svg version="1.1" id="Capa_1" xmlns="http://www.w3.org/2000/svg" xmlns:xlink="http://www.w3.org/1999/xlink" x="0px" y="0px"
	 width="128px" height="128px" viewBox="0 0 128 128" enable-background="new 0 0 128 128" xml:space="preserve">
<g>
	<path fill="#FFFFFF" d="M111.984,46.944c-1.607-0.053-2.986,0.21-4.137,0.787c-2.521,1.266-4.705,2.714-7.546,0.437
		c-1.112-0.891-2.435-1.244-3.823-1.052c-6.286,0.872-9.123,5.034-8.512,12.487c0.057,0.565,0.129,1.123,0.21,1.678
		c-2.836-0.037-5.668-0.064-8.498-0.088c0.238-1.554,0.366-3.134,0.377-4.741c-0.603-5.974-3.189-9.265-8.016-9.508
		c-1.607-0.053-2.986,0.21-4.137,0.787c-2.521,1.266-4.705,2.714-7.546,0.437c-1.112-0.891-2.435-1.244-3.823-1.052
		c-6.286,0.872-9.123,5.034-8.512,12.487c0.054,0.538,0.121,1.071,0.197,1.599c-2.836,0.025-5.673,0.05-8.502,0.089
		c0.248-1.586,0.383-3.198,0.394-4.839c-0.603-5.974-3.189-9.265-8.016-9.508c-1.607-0.053-2.986,0.21-4.137,0.787
		c-2.521,1.266-4.705,2.714-7.546,0.437c-1.112-0.891-2.435-1.244-3.823-1.052c-6.286,0.872-9.123,5.034-8.512,12.487
		c0.799,7.986,4.06,14.895,9.783,20.726c0.805,0.821,3.215,1.007,4.147,0.28c-0.281-3.561-0.396-6.36-0.346-8.396
		c0.041-1.659,0.716-2.608,2.502-2.577c1.787-0.027,2.466,1.34,2.383,2.943c-0.263,5.095-0.394,7.643-0.394,7.643
		c1.396,1.451,3.541,0.313,4.648-0.93c4.799-5.39,7.734-11.214,8.822-17.469h8.695c1.143,7.052,4.3,13.223,9.485,18.506
		c0.805,0.821,3.215,1.007,4.147,0.28c-0.281-3.561-0.396-6.36-0.346-8.396c0.041-1.659,0.716-2.608,2.502-2.577
		c1.787-0.027,2.466,1.34,2.383,2.943c-0.263,5.095-0.394,7.643-0.394,7.643c1.396,1.451,3.541,0.313,4.649-0.93
		c4.799-5.39,7.734-11.214,8.822-17.469h8.695c1.143,7.052,4.3,13.223,9.485,18.506c0.805,0.821,3.215,1.007,4.147,0.28
		c-0.281-3.561-0.396-6.36-0.346-8.396c0.04-1.659,0.716-2.608,2.502-2.577c1.787-0.027,2.466,1.34,2.383,2.943
		c-0.263,5.095-0.394,7.643-0.394,7.643c1.396,1.451,3.541,0.313,4.648-0.93c6.147-6.904,9.25-14.517,9.309-22.84
		C119.397,50.479,116.811,47.188,111.984,46.944z"/>
	<g>
		<path fill="#FFFFFF" d="M27.961,47.731c1.151-0.577,2.53-0.84,4.137-0.787c4.827,0.243,7.412,3.534,8.016,9.508
			c-0.059,8.323-3.162,15.937-9.309,22.84c-1.108,1.242-3.252,2.38-4.648,0.93c0,0,0.131-2.548,0.394-7.643
			c0.083-1.603-0.597-2.97-2.384-2.943c-1.786-0.032-2.461,0.918-2.502,2.577c-0.05,2.036,0.065,4.835,0.346,8.397
			c-0.932,0.727-3.342,0.541-4.147-0.28C12.141,74.5,8.88,67.59,8.081,59.604c-0.612-7.453,2.225-11.615,8.512-12.487
			c1.388-0.192,2.71,0.161,3.823,1.052C23.256,50.445,25.441,48.998,27.961,47.731z"/>
		<g>
			<g>
				<g>
					<defs>
						<path id="SVGID_1_" d="M27.961,47.731c1.151-0.577,2.53-0.84,4.137-0.787c4.827,0.243,7.412,3.534,8.016,9.508
							c-0.059,8.323-3.162,15.937-9.309,22.84c-1.108,1.242-3.252,2.38-4.648,0.93c0,0,0.131-2.548,0.394-7.643
							c0.083-1.603-0.597-2.97-2.384-2.943c-1.786-0.032-2.461,0.918-2.502,2.577c-0.05,2.036,0.065,4.835,0.346,8.397
							c-0.932,0.727-3.342,0.541-4.147-0.28C12.141,74.5,8.88,67.59,8.081,59.604c-0.612-7.453,2.225-11.615,8.512-12.487
							c1.388-0.192,2.71,0.161,3.823,1.052C23.256,50.445,25.441,48.998,27.961,47.731z"/>
					</defs>
					<clipPath id="SVGID_2_">
						<use xlink:href="#SVGID_1_"  overflow="visible"/>
					</clipPath>
					<g clip-path="url(#SVGID_2_)">
						<path fill="#EDEDED" d="M5.948,50.29c-0.157,24.416,5.198,34.522,16.064,30.32c-9.209-11.736-10.341-22.86-3.397-33.371
							C13.162,45.808,8.939,46.826,5.948,50.29z"/>
					</g>
				</g>
			</g>
		</g>
		<path fill="none" stroke="#FFFFFF" stroke-width="1.567" stroke-miterlimit="22.9256" d="M27.961,47.731
			c1.151-0.577,2.53-0.84,4.137-0.787c4.827,0.243,7.412,3.534,8.016,9.508c-0.059,8.323-3.162,15.937-9.309,22.84
			c-1.108,1.242-3.252,2.38-4.648,0.93c0,0,0.131-2.548,0.394-7.643c0.083-1.603-0.597-2.97-2.384-2.943
			c-1.786-0.032-2.461,0.918-2.502,2.577c-0.05,2.036,0.065,4.835,0.346,8.397c-0.932,0.727-3.342,0.541-4.147-0.28
			C12.141,74.5,8.88,67.59,8.081,59.604c-0.612-7.453,2.225-11.615,8.512-12.487c1.388-0.192,2.71,0.161,3.823,1.052
			C23.256,50.445,25.441,48.998,27.961,47.731z"/>
		
			<path fill="none" stroke="#436DB3" stroke-width="0.8358" stroke-linecap="round" stroke-linejoin="round" stroke-miterlimit="22.9256" d="
			M30.438,50.456c3.626-0.179,5.616,1.775,5.97,5.86"/>
		<path fill="#FFFFFF" d="M20.795,55.483h6.523c1.095,0,1.99,0.895,1.99,1.99v7.297c0,1.095-0.895,1.99-1.99,1.99h-6.523
			c-1.095,0-1.99-0.895-1.99-1.99v-7.297C18.805,56.38,19.701,55.483,20.795,55.483z"/>
		<path fill="#EDEDED" d="M22.649,58.688h2.816c0.472,0,0.859,0.387,0.859,0.859v3.15c0,0.473-0.387,0.859-0.859,0.859h-2.816
			c-0.473,0-0.859-0.387-0.859-0.859v-3.15C21.79,59.075,22.176,58.688,22.649,58.688z"/>
		<path fill="#FFFFFF" d="M67.904,47.731c1.151-0.577,2.53-0.84,4.137-0.787c4.826,0.243,7.412,3.534,8.016,9.508
			c-0.059,8.323-3.162,15.937-9.309,22.84c-1.108,1.242-3.252,2.38-4.649,0.93c0,0,0.131-2.548,0.394-7.643
			c0.083-1.603-0.597-2.97-2.383-2.943c-1.786-0.032-2.461,0.918-2.502,2.577c-0.05,2.036,0.065,4.835,0.346,8.397
			c-0.932,0.727-3.342,0.541-4.148-0.28c-5.723-5.831-8.984-12.74-9.783-20.726c-0.612-7.453,2.225-11.615,8.512-12.487
			c1.388-0.192,2.71,0.161,3.823,1.052C63.199,50.445,65.384,48.998,67.904,47.731z"/>
		<g>
			<g>
				<g>
					<defs>
						<path id="SVGID_3_" d="M67.904,47.731c1.151-0.577,2.53-0.84,4.137-0.787c4.826,0.243,7.412,3.534,8.016,9.508
							c-0.059,8.323-3.162,15.937-9.309,22.84c-1.108,1.242-3.252,2.38-4.649,0.93c0,0,0.131-2.548,0.394-7.643
							c0.083-1.603-0.597-2.97-2.383-2.943c-1.786-0.032-2.461,0.918-2.502,2.577c-0.05,2.036,0.065,4.835,0.346,8.397
							c-0.932,0.727-3.342,0.541-4.148-0.28c-5.723-5.831-8.984-12.74-9.783-20.726c-0.612-7.453,2.225-11.615,8.512-12.487
							c1.388-0.192,2.71,0.161,3.823,1.052C63.199,50.445,65.384,48.998,67.904,47.731z"/>
					</defs>
					<clipPath id="SVGID_4_">
						<use xlink:href="#SVGID_3_"  overflow="visible"/>
					</clipPath>
					<g clip-path="url(#SVGID_4_)">
						<path fill="#EDEDED" d="M45.891,50.29c-0.157,24.416,5.198,34.522,16.064,30.32c-9.209-11.736-10.341-22.86-3.397-33.371
							C53.105,45.808,48.883,46.826,45.891,50.29z"/>
					</g>
				</g>
			</g>
		</g>
		<path fill="none" stroke="#FFFFFF" stroke-width="1.567" stroke-miterlimit="22.9256" d="M67.904,47.731
			c1.151-0.577,2.53-0.84,4.137-0.787c4.826,0.243,7.412,3.534,8.016,9.508c-0.059,8.323-3.162,15.937-9.309,22.84
			c-1.108,1.242-3.252,2.38-4.649,0.93c0,0,0.131-2.548,0.394-7.643c0.083-1.603-0.597-2.97-2.383-2.943
			c-1.786-0.032-2.461,0.918-2.502,2.577c-0.05,2.036,0.065,4.835,0.346,8.397c-0.932,0.727-3.342,0.541-4.148-0.28
			c-5.723-5.831-8.984-12.74-9.783-20.726c-0.612-7.453,2.225-11.615,8.512-12.487c1.388-0.192,2.71,0.161,3.823,1.052
			C63.199,50.445,65.384,48.998,67.904,47.731z"/>
		<path fill="#FFFFFF" d="M60.738,55.483h6.523c1.095,0,1.99,0.895,1.99,1.99v7.297c0,1.095-0.895,1.99-1.99,1.99h-6.523
			c-1.095,0-1.99-0.895-1.99-1.99v-7.297C58.748,56.38,59.644,55.483,60.738,55.483z"/>
		<path fill="#EDEDED" d="M62.592,58.688h2.816c0.472,0,0.859,0.387,0.859,0.859v3.15c0,0.473-0.387,0.859-0.859,0.859h-2.816
			c-0.473,0-0.859-0.387-0.859-0.859v-3.15C61.733,59.075,62.119,58.688,62.592,58.688z"/>
		<path fill="#FFFFFF" d="M107.847,47.731c1.151-0.577,2.53-0.84,4.137-0.787c4.826,0.243,7.412,3.534,8.016,9.508
			c-0.059,8.323-3.162,15.937-9.309,22.84c-1.108,1.242-3.252,2.38-4.648,0.93c0,0,0.131-2.548,0.394-7.643
			c0.083-1.603-0.597-2.97-2.383-2.943c-1.786-0.032-2.461,0.918-2.502,2.577c-0.05,2.036,0.065,4.835,0.346,8.397
			c-0.932,0.727-3.342,0.541-4.148-0.28c-5.723-5.831-8.984-12.74-9.783-20.726c-0.612-7.453,2.225-11.615,8.512-12.487
			c1.388-0.192,2.71,0.161,3.823,1.052C103.143,50.445,105.327,48.998,107.847,47.731z"/>
		<g>
			<g>
				<g>
					<defs>
						<path id="SVGID_5_" d="M107.847,47.731c1.151-0.577,2.53-0.84,4.137-0.787c4.826,0.243,7.412,3.534,8.016,9.508
							c-0.059,8.323-3.162,15.937-9.309,22.84c-1.108,1.242-3.252,2.38-4.648,0.93c0,0,0.131-2.548,0.394-7.643
							c0.083-1.603-0.597-2.97-2.383-2.943c-1.786-0.032-2.461,0.918-2.502,2.577c-0.05,2.036,0.065,4.835,0.346,8.397
							c-0.932,0.727-3.342,0.541-4.148-0.28c-5.723-5.831-8.984-12.74-9.783-20.726c-0.612-7.453,2.225-11.615,8.512-12.487
							c1.388-0.192,2.71,0.161,3.823,1.052C103.143,50.445,105.327,48.998,107.847,47.731z"/>
					</defs>
					<clipPath id="SVGID_6_">
						<use xlink:href="#SVGID_5_"  overflow="visible"/>
					</clipPath>
					<g clip-path="url(#SVGID_6_)">
						<path fill="#EDEDED" d="M85.834,50.29c-0.157,24.416,5.198,34.522,16.064,30.32c-9.209-11.736-10.341-22.86-3.397-33.371
							C93.048,45.808,88.826,46.826,85.834,50.29z"/>
					</g>
				</g>
			</g>
		</g>
		<path fill="none" stroke="#FFFFFF" stroke-width="1.567" stroke-miterlimit="22.9256" d="M107.847,47.731
			c1.151-0.577,2.53-0.84,4.137-0.787c4.826,0.243,7.412,3.534,8.016,9.508c-0.059,8.323-3.162,15.937-9.309,22.84
			c-1.108,1.242-3.252,2.38-4.648,0.93c0,0,0.131-2.548,0.394-7.643c0.083-1.603-0.597-2.97-2.383-2.943
			c-1.786-0.032-2.461,0.918-2.502,2.577c-0.05,2.036,0.065,4.835,0.346,8.397c-0.932,0.727-3.342,0.541-4.148-0.28
			c-5.723-5.831-8.984-12.74-9.783-20.726c-0.612-7.453,2.225-11.615,8.512-12.487c1.388-0.192,2.71,0.161,3.823,1.052
			C103.143,50.445,105.327,48.998,107.847,47.731z"/>
		<path fill="#FFFFFF" d="M100.681,55.483h6.523c1.095,0,1.99,0.895,1.99,1.99v7.297c0,1.095-0.895,1.99-1.99,1.99h-6.523
			c-1.095,0-1.99-0.895-1.99-1.99v-7.297C98.691,56.38,99.587,55.483,100.681,55.483z"/>
		<path fill="#EDEDED" d="M102.535,58.688h2.816c0.472,0,0.859,0.387,0.859,0.859v3.15c0,0.473-0.387,0.859-0.859,0.859h-2.816
			c-0.473,0-0.859-0.387-0.859-0.859v-3.15C101.676,59.075,102.062,58.688,102.535,58.688z"/>
		
			<path fill="none" stroke="#95EFF9" stroke-width="1.0446" stroke-linecap="round" stroke-linejoin="round" stroke-miterlimit="22.9256" d="
			M14.083,61.824c33.278-0.936,67.035-0.936,101.272,0"/>
		<path fill="#EDEDED" d="M106.951,50.851c0.361-0.202,0.537-0.119,0.525,0.249c-2.506,3.114-5.362,3.188-8.568,0.221
			c-0.117-0.299,0.021-0.428,0.415-0.387C102.165,52.182,104.708,52.155,106.951,50.851z"/>
		
			<path fill="none" stroke="#436DB3" stroke-width="0.7312" stroke-linecap="round" stroke-linejoin="round" stroke-miterlimit="22.9256" d="
			M69.141,77.081c2.904-2.375,4.783-5.839,5.639-10.393"/>
		
			<path fill="none" stroke="#436DB3" stroke-width="0.8358" stroke-linecap="round" stroke-linejoin="round" stroke-miterlimit="22.9256" d="
			M107.373,51.361c-2.376,2.745-5.163,2.835-8.361,0.268"/>
	</g>
</g>
</svg>
